# Blender 4.1.1
# www.blender.org
mtllib race-buggy-def.mtl
o body
v -0.067000 0.632544 -0.203125
v -0.036850 0.470315 -0.803125
v -0.067000 0.732544 -0.203125
v 0.067000 0.732544 -0.203125
v 0.036850 0.470315 -0.803125
v 0.067000 0.632544 -0.203125
v -0.405472 0.488544 0.165489
v -0.405472 0.488544 0.065489
v -0.350000 0.488544 0.165489
v -0.350000 0.488544 0.065489
v -0.350000 0.488544 -0.203125
v -0.252000 0.488544 -0.203125
v -0.235876 0.488544 -0.122722
v -0.206652 0.488544 -0.049793
v -0.165952 0.488544 0.011612
v -0.151250 0.488544 0.326540
v -0.116035 0.488544 0.058084
v -0.151250 0.488544 0.473636
v -0.059675 0.488544 0.087041
v -0.000000 0.488544 0.096875
v 0.059675 0.488544 0.087041
v 0.116035 0.488544 0.058084
v 0.151250 0.488544 0.473636
v 0.151250 0.488544 0.326540
v 0.165952 0.488544 0.011612
v 0.206652 0.488544 -0.049793
v 0.235876 0.488544 -0.122722
v 0.252000 0.488544 -0.203125
v 0.350000 0.488544 0.165489
v 0.350000 0.488544 0.065489
v 0.350000 0.488544 -0.203125
v 0.413782 0.488544 0.165489
v 0.413782 0.488544 0.065489
v 0.250000 0.286044 -1.079886
v 0.250000 0.309141 -0.979886
v 0.105840 0.286044 -1.079886
v 0.350000 0.309141 -0.979886
v 0.250000 0.536044 -1.279886
v 0.250000 0.636044 -1.279886
v 0.250000 0.536044 -0.979886
v 0.250000 0.586044 -0.979886
v 0.350000 0.636044 -1.279886
v 0.350000 0.586044 -0.979886
v -0.350000 0.150000 -1.279886
v -0.350000 0.636044 -1.279886
v -0.350000 0.100000 -1.229886
v -0.350000 0.586044 -0.979886
v -0.350000 0.309141 -0.979886
v -0.350000 0.100000 -0.434511
v -0.350000 0.300000 -0.434511
v -0.350000 0.300000 0.165489
v -0.350000 0.388544 0.065489
v -0.350000 0.388544 0.165489
v -0.250000 0.636044 -1.279886
v -0.250000 0.536044 -1.279886
v -0.250000 0.586044 -0.979886
v -0.250000 0.536044 -0.979886
v 0.350000 0.388544 0.065489
v 0.350000 0.300000 0.165489
v 0.350000 0.388544 0.165489
v 0.350000 0.300000 -0.434511
v 0.350000 0.100000 -0.434511
v 0.350000 0.100000 -1.229886
v 0.350000 0.150000 -1.279886
v 0.413782 0.388544 0.065489
v 0.413782 0.388544 0.165489
v -0.405472 0.388544 0.165489
v -0.405472 0.388544 0.065489
v 0.250000 0.286044 -1.279886
v -0.250000 0.286044 -1.279886
v -0.105840 0.286044 -1.079886
v -0.250000 0.286044 -1.079886
v -0.250000 0.309141 -0.979886
v 0.250000 0.486044 -0.979886
v -0.250000 0.486044 -0.979886
v -0.250000 0.486044 -1.279886
v 0.250000 0.486044 -1.279886
v -0.067000 0.632544 -0.103125
v -0.067000 0.732544 -0.103125
v 0.067000 0.732544 -0.103125
v 0.067000 0.632544 -0.103125
v 0.151250 0.323837 0.826447
v -0.151250 0.323837 0.826447
v -0.151250 0.226461 0.851673
v -0.151250 0.197443 0.832909
v -0.151250 0.100000 0.326540
v 0.151250 0.100000 0.326540
v 0.151250 0.197443 0.832909
v 0.151250 0.226461 0.851673
v -0.105840 0.395484 -1.079886
v -0.252000 0.488544 -0.203125
v -0.252000 0.632544 -0.203125
v 0.105840 0.395484 -1.079886
v 0.252000 0.632544 -0.203125
v 0.252000 0.488544 -0.203125
v -0.067000 0.632544 -0.203125
v -0.067000 0.632544 -0.103125
v -0.116035 0.632544 0.058084
v -0.165952 0.632544 0.011612
v -0.206652 0.632544 -0.049793
v -0.235876 0.632544 -0.122722
v -0.059675 0.632544 0.087041
v -0.000000 0.632544 0.096875
v 0.059675 0.632544 0.087041
v 0.067000 0.632544 -0.103125
v 0.116035 0.632544 0.058084
v 0.067000 0.632544 -0.203125
v 0.165952 0.632544 0.011612
v 0.206652 0.632544 -0.049793
v 0.235876 0.632544 -0.122722
v 0.036850 0.470315 -0.803125
v -0.036850 0.470315 -0.803125
v 0.350000 0.100000 0.165489
v -0.350000 0.100000 0.165489
v 0.151250 0.226461 0.851673
v -0.151250 0.226461 0.851673
v -0.250000 0.486044 -1.279886
v 0.250000 0.486044 -1.279886
v -0.250000 0.536044 -1.279886
v 0.250000 0.536044 -1.279886
v 0.250000 0.486044 -0.979886
v -0.250000 0.486044 -0.979886
v 0.250000 0.536044 -0.979886
v -0.250000 0.536044 -0.979886
v 0.059675 0.632544 0.087041
v -0.000000 0.632544 0.096875
v -0.059675 0.632544 0.087041
v -0.252000 0.632544 -0.203125
v -0.235876 0.632544 -0.122722
v -0.116035 0.632544 0.058084
v 0.252000 0.632544 -0.203125
v 0.235876 0.632544 -0.122722
v 0.206652 0.632544 -0.049793
v 0.165952 0.632544 0.011612
v -0.206652 0.632544 -0.049793
v -0.165952 0.632544 0.011612
v 0.116035 0.632544 0.058084
v 0.151250 0.254552 0.856800
v -0.151250 0.254552 0.856800
v 0.151250 0.282940 0.853764
v -0.151250 0.282940 0.853764
v 0.151250 0.303388 0.844210
v -0.151250 0.303388 0.844210
vn -0.9996 -0.0000 -0.0270
vn -0.9998 -0.0000 -0.0213
vn -0.9987 -0.0000 -0.0502
vn 0.9998 -0.0000 -0.0213
vn 0.9996 -0.0000 -0.0270
vn 0.9987 -0.0000 -0.0502
vn -0.7071 0.7071 -0.0000
vn -0.0000 1.0000 -0.0000
vn -0.0000 0.9936 -0.1132
vn -0.0000 0.9937 -0.1121
vn -0.0000 0.9762 0.2167
vn 0.7071 0.7071 -0.0000
vn -0.0000 0.9743 -0.2250
vn -0.0000 0.9934 -0.1144
vn -1.0000 -0.0000 -0.0000
vn -0.0000 0.9864 0.1644
vn -0.0000 0.6486 0.7611
vn -0.0000 0.6464 0.7630
vn 1.0000 -0.0000 -0.0000
vn -0.0000 -0.0000 1.0000
vn -0.0000 -1.0000 -0.0000
vn -0.0000 0.6482 0.7615
vn -0.0000 0.9795 -0.2015
vn -0.0000 0.9163 -0.4005
vn -0.0000 -0.0000 -1.0000
vn -0.0000 -0.3827 -0.9239
vn 0.3175 0.6323 0.7066
vn -0.0929 0.6877 0.7200
vn -0.0000 -0.0370 0.9993
vn -0.0000 0.2685 0.9633
vn -0.0913 0.1117 0.9895
vn -0.0905 -0.1930 0.9770
vn -0.0000 -0.1795 0.9837
vn -0.9864 -0.0000 -0.1644
vn 0.9864 -0.0000 -0.1644
vn -0.0000 0.9910 -0.1337
vn -0.0000 0.9911 -0.1335
vn -0.0000 0.9913 -0.1313
vn -0.0000 0.9914 -0.1311
vn -0.0000 0.9907 -0.1358
vn -0.0000 0.9653 -0.2610
vn -0.0000 0.9907 -0.1360
vn 0.5721 -0.8202 -0.0000
vn 0.4472 -0.8944 -0.0000
vn -0.6296 -0.0000 0.7769
vn 0.6296 -0.0000 0.7769
vn -0.0000 -0.9973 0.0739
vn -0.0000 -0.8290 0.5592
vn -0.0000 -0.9239 -0.3827
vn -0.7572 -0.3664 0.5407
vn -0.7512 0.0277 0.6595
vn -0.0000 0.7071 -0.7071
vn -0.0000 0.7071 0.7071
vn 0.3136 -0.0000 0.9496
vn -0.3136 -0.0000 0.9496
vn -0.9805 -0.0000 0.1966
vn -0.9584 -0.0000 0.2855
vn -0.5746 -0.0000 0.8184
vn 0.9805 -0.0000 0.1966
vn 0.9584 -0.0000 0.2855
vn 0.8855 -0.0000 0.4646
vn 0.7628 -0.0000 0.6467
vn -0.8855 -0.0000 0.4646
vn -0.7628 -0.0000 0.6467
vn 0.5746 -0.0000 0.8184
vn -0.0000 -0.5430 0.8397
vn -0.0000 0.5448 0.8386
vn -0.0903 0.4046 0.9100
vt 0.093750 0.693382
vt 0.093750 0.725000
vt 0.093750 0.642088
vt 0.093750 0.647851
vt 0.093750 0.583824
vt 0.093750 0.591127
vt 0.093750 0.662870
vt 0.093750 0.694488
vt 0.093750 0.678679
vt 0.093750 0.540809
vt 0.093750 0.525000
vt 0.093750 0.588237
vt 0.093750 0.616233
vt 0.093750 0.647061
vt 0.093750 0.580161
vt 0.093750 0.556618
vt 0.093750 0.566583
vt 0.093750 0.573372
vt 0.093750 0.576766
vt 0.094882 0.646959
vt 0.093226 0.580206
vt 0.093224 0.580195
vt 0.093750 0.583442
vt 0.093750 0.556584
vt 0.093750 0.625000
vt 0.093750 0.578181
vt 0.718750 0.147061
vt 0.094102 0.623565
vt 0.094099 0.623568
vt 0.093224 0.585175
vt 0.718750 0.025000
vt 0.718750 0.147851
vt 0.718750 0.088237
vt 0.718750 0.116233
vt 0.718750 0.083824
vt 0.718750 0.118427
vt 0.718750 0.193382
vt 0.718750 0.225000
vt 0.718750 0.040809
vt 0.093750 0.147851
vt 0.093750 0.193382
vt 0.093750 0.366233
vt 0.093750 0.397851
vt 0.093203 0.541314
vt 0.092414 0.579956
vt 0.092463 0.579479
vt 0.094960 0.647017
vt 0.090933 0.585632
vt 0.091933 0.640060
s 1
usemtl colormap
f 1/1/1 3/2/2 2/3/3
f 4/2/4 6/1/5 5/3/6
f 7/4/7 9/4/8 8/4/7
f 8/4/7 9/4/8 10/4/8
f 10/4/8 9/4/8 11/4/9
f 11/4/9 9/4/8 12/4/10
f 12/4/10 9/4/8 13/4/8
f 13/4/8 9/4/8 14/4/8
f 14/4/8 9/4/8 15/4/8
f 9/4/8 16/4/8 15/4/8
f 17/4/8 15/4/8 16/4/8
f 16/4/8 18/4/11 17/4/8
f 17/4/8 18/4/11 19/4/8
f 19/4/8 18/4/11 20/4/8
f 20/4/8 18/4/11 21/4/8
f 21/4/8 18/4/11 22/4/8
f 18/4/11 23/4/11 22/4/8
f 23/4/11 24/4/8 22/4/8
f 22/4/8 24/4/8 25/4/8
f 25/4/8 24/4/8 26/4/8
f 26/4/8 24/4/8 27/4/8
f 27/4/8 24/4/8 28/4/10
f 24/4/8 29/4/8 28/4/10
f 29/4/8 30/4/8 28/4/10
f 31/4/9 28/4/10 30/4/8
f 29/4/8 32/4/12 30/4/8
f 33/4/12 30/4/8 32/4/12
f 34/5/13 36/5/13 35/6/13
f 36/5/13 28/4/14 35/6/13
f 28/4/10 31/4/9 35/6/13
f 37/6/13 35/6/13 31/4/9
f 38/7/15 40/7/15 39/8/15
f 41/9/15 39/8/15 40/7/15
f 42/8/16 39/8/16 43/9/17
f 41/9/18 43/9/17 39/8/16
f 44/10/15 46/11/15 45/8/15
f 47/9/15 45/8/15 46/11/15
f 48/6/15 47/9/15 46/11/15
f 46/11/15 49/11/15 48/6/15
f 50/12/15 48/6/15 49/11/15
f 11/4/15 48/6/15 50/12/15
f 51/12/15 11/4/15 50/12/15
f 52/13/15 11/4/15 51/12/15
f 53/13/15 52/13/15 51/12/15
f 52/13/15 10/4/15 11/4/15
f 54/8/19 56/9/19 55/7/19
f 57/7/19 55/7/19 56/9/19
f 54/8/16 45/8/16 56/9/18
f 47/9/18 56/9/18 45/8/16
f 30/4/19 58/13/19 31/4/19
f 58/13/19 59/12/19 31/4/19
f 60/13/19 59/12/19 58/13/19
f 59/12/19 61/12/19 31/4/19
f 37/6/19 31/4/19 61/12/19
f 61/12/19 62/11/19 37/6/19
f 62/11/19 63/11/19 37/6/19
f 37/6/19 63/11/19 43/9/19
f 63/11/19 64/10/19 43/9/19
f 42/8/19 43/9/19 64/10/19
f 33/4/12 32/4/12 65/13/19
f 66/13/19 65/13/19 32/4/12
f 66/13/20 32/4/20 60/13/20
f 29/4/20 60/13/20 32/4/20
f 66/13/21 60/13/21 65/13/21
f 58/13/21 65/13/21 60/13/21
f 53/13/20 9/4/20 67/13/20
f 7/4/20 67/13/20 9/4/20
f 68/13/15 67/13/15 8/4/7
f 7/4/7 8/4/7 67/13/15
f 53/13/21 67/13/21 52/13/21
f 68/13/21 52/13/21 67/13/21
f 69/5/8 70/5/8 34/5/8
f 36/5/8 34/5/8 70/5/8
f 71/5/8 36/5/8 70/5/8
f 72/5/8 71/5/8 70/5/8
f 72/5/13 73/6/13 71/5/13
f 12/4/10 71/5/13 73/6/13
f 48/6/13 12/4/10 73/6/13
f 11/4/9 12/4/10 48/6/13
f 37/6/20 43/9/22 35/6/20
f 74/14/20 35/6/20 43/9/22
f 40/7/20 74/14/20 43/9/17
f 41/9/18 40/7/20 43/9/17
f 73/6/20 75/14/20 48/6/20
f 47/9/22 48/6/20 75/14/20
f 57/7/20 47/9/22 75/14/20
f 56/9/18 47/9/18 57/7/20
f 76/14/19 75/14/19 70/5/19
f 72/5/19 70/5/19 75/14/19
f 73/6/19 72/5/19 75/14/19
f 69/5/15 34/5/15 77/14/15
f 74/14/15 77/14/15 34/5/15
f 35/6/15 74/14/15 34/5/15
f 1/1/1 78/1/15 3/2/2
f 79/2/15 3/2/2 78/1/15
f 4/2/23 5/3/24 3/2/23
f 2/3/24 3/2/23 5/3/24
f 4/2/23 3/2/23 80/2/8
f 79/2/8 80/2/8 3/2/23
f 4/2/4 80/2/19 6/1/5
f 81/1/19 6/1/5 80/2/19
f 54/8/25 55/7/25 45/8/25
f 55/7/25 76/14/25 45/8/25
f 76/14/25 70/5/25 45/8/25
f 45/8/25 70/5/25 44/10/26
f 64/10/26 44/10/26 70/5/25
f 70/5/25 69/5/25 64/10/26
f 42/8/25 64/10/26 69/5/25
f 77/14/25 42/8/25 69/5/25
f 38/7/25 42/8/25 77/14/25
f 39/8/25 42/8/25 38/7/25
f 23/4/11 18/4/11 82/15/27
f 83/15/28 82/15/27 18/4/11
f 84/16/15 139/17/15 141/18/15 143/19/15 83/15/15 85/11/15
f 18/20/15 16/20/15 86/21/15 85/21/15 83/22/15
f 24/4/19 23/4/19 87/11/19
f 89/16/19 88/11/19 82/15/19 142/19/19 140/18/19 138/17/19
f 138/17/29 140/18/30 141/18/31 139/17/32
f 89/16/33 138/17/29 139/17/32 84/16/33
f 71/11/34 91/23/34 90/24/34
f 92/25/34 90/24/34 91/23/34
f 93/24/35 94/25/35 36/11/35
f 95/23/35 36/11/35 94/25/35
f 96/25/36 92/25/37 97/25/8
f 98/25/8 97/25/8 92/25/37
f 99/25/8 98/25/8 92/25/37
f 100/25/8 99/25/8 92/25/37
f 101/25/8 100/25/8 92/25/37
f 98/25/8 102/25/8 97/25/8
f 102/25/8 103/25/8 97/25/8
f 103/25/8 104/25/8 97/25/8
f 97/25/8 104/25/8 105/25/8
f 104/25/8 106/25/8 105/25/8
f 105/25/8 106/25/8 107/25/38
f 106/25/8 108/25/8 107/25/38
f 108/25/8 109/25/8 107/25/38
f 109/25/8 110/25/8 107/25/38
f 94/25/39 107/25/38 110/25/8
f 94/25/40 93/24/41 107/25/42
f 111/26/41 107/25/42 93/24/41
f 90/24/41 111/26/41 93/24/41
f 112/26/41 111/26/41 90/24/41
f 96/25/36 112/26/41 90/24/41
f 92/25/37 96/25/36 90/24/41
f 74/27/21 75/27/21 77/27/21
f 76/27/21 77/27/21 75/27/21
f 59/28/19 113/29/43 62/29/44 61/30/19
f 86/31/45 16/32/45 114/31/45
f 51/33/45 114/31/45 16/32/45
f 53/34/45 51/33/45 16/32/45
f 9/32/45 53/34/45 16/32/45
f 113/31/46 59/33/46 87/31/46
f 24/32/46 87/31/46 59/33/46
f 60/34/46 24/32/46 59/33/46
f 29/32/46 24/32/46 60/34/46
f 71/35/25 90/36/25 36/35/25
f 93/36/25 36/35/25 90/36/25
f 87/31/47 88/31/48 85/31/48
f 85/31/48 86/31/47 87/31/47
f 86/31/47 46/31/49 87/31/47
f 114/31/50 46/31/49 86/31/47
f 46/31/49 63/31/49 87/31/47
f 49/31/51 46/31/49 114/31/50
f 63/31/49 62/31/44 87/31/47
f 87/31/47 62/31/44 113/31/43
f 81/37/20 80/38/20 78/37/20
f 79/38/20 78/37/20 80/38/20
f 46/31/49 44/39/26 63/31/49
f 64/39/26 63/31/49 44/39/26
f 117/31/25 119/38/52 118/31/25
f 120/38/52 118/31/25 119/38/52
f 121/31/20 123/38/53 122/31/20
f 124/38/53 122/31/20 123/38/53
f 120/38/52 119/38/52 123/38/53
f 124/38/53 123/38/53 119/38/52
f 21/40/54 125/41/54 20/40/20
f 126/41/20 20/40/20 125/41/54
f 20/40/20 126/41/20 19/40/55
f 127/41/55 19/40/55 126/41/20
f 12/40/56 13/40/57 128/41/56
f 129/41/57 128/41/56 13/40/57
f 19/40/55 127/41/55 17/40/58
f 130/41/58 17/40/58 127/41/55
f 131/41/59 132/41/60 28/40/59
f 27/40/60 28/40/59 132/41/60
f 132/41/60 133/41/61 27/40/60
f 26/40/61 27/40/60 133/41/61
f 133/41/61 134/41/62 26/40/61
f 25/40/62 26/40/61 134/41/62
f 14/40/63 15/40/64 135/41/63
f 136/41/64 135/41/63 15/40/64
f 13/40/57 14/40/63 129/41/57
f 135/41/63 129/41/57 14/40/63
f 22/40/65 137/41/65 21/40/54
f 125/41/54 21/40/54 137/41/65
f 17/40/58 130/41/58 15/40/64
f 136/41/64 15/40/64 130/41/58
f 25/40/62 134/41/62 22/40/65
f 137/41/65 22/40/65 134/41/62
f 58/42/25 30/43/25 65/42/25
f 33/43/25 65/42/25 30/43/25
f 68/42/25 8/43/25 52/42/25
f 10/43/25 52/42/25 8/43/25
f 84/16/66 85/44/48 88/11/48 89/16/66
f 88/45/19 87/46/19 23/47/19 82/47/19
f 141/18/31 140/18/30 142/19/67 143/19/68
f 143/19/68 142/19/67 82/15/27 83/15/28
f 49/48/51 114/48/50 51/48/15 50/49/15
l 89 115
l 84 116
