# Blender 4.1.1
# www.blender.org
mtllib wheel-racing_alt.mtl
o wheel-racing
v -0.100000 0.289778 -0.077646
v 0.100000 0.289778 -0.077646
v -0.100000 0.300000 0.000000
v 0.100000 0.300000 0.000000
v -0.100000 -0.150000 0.259808
v -0.200000 -0.127500 0.220836
v -0.100000 -0.077646 0.289778
v -0.200000 -0.065999 0.246311
v 0.100000 0.077646 0.289778
v -0.100000 0.077646 0.289778
v 0.100000 0.150000 0.259808
v -0.100000 0.150000 0.259808
v -0.100000 -0.077646 -0.289778
v -0.100000 0.000000 -0.300000
v -0.200000 -0.065999 -0.246311
v -0.200000 0.000000 -0.255000
v 0.100000 -0.077646 -0.289778
v 0.100000 0.000000 -0.300000
v -0.100000 0.289778 0.077646
v 0.100000 0.289778 0.077646
v -0.100000 0.259808 0.150000
v 0.100000 0.259808 0.150000
v 0.100000 -0.150000 0.259808
v 0.100000 -0.077646 0.289778
v -0.200000 0.065999 0.246311
v -0.200000 0.127500 0.220836
v -0.100000 0.259808 -0.150000
v 0.100000 0.259808 -0.150000
v 0.100000 0.212132 0.212132
v -0.100000 0.212132 0.212132
v -0.200000 -0.246311 -0.065999
v -0.200000 -0.255000 -0.000000
v -0.100000 -0.289778 -0.077646
v -0.100000 -0.300000 -0.000000
v -0.200000 0.255000 0.000000
v -0.200000 0.246311 0.065999
v -0.100000 -0.259808 -0.150000
v 0.100000 -0.259808 -0.150000
v 0.100000 -0.289778 -0.077646
v 0.100000 -0.000000 0.300000
v -0.100000 -0.000000 0.300000
v -0.200000 -0.220836 -0.127500
v -0.200000 -0.220836 0.127500
v -0.200000 -0.180312 0.180312
v -0.100000 -0.259808 0.150000
v -0.100000 -0.212132 0.212132
v -0.100000 0.150000 -0.259808
v 0.100000 0.150000 -0.259808
v -0.100000 0.212132 -0.212132
v 0.100000 0.212132 -0.212132
v -0.200000 0.220836 0.127500
v -0.200000 0.180312 0.180312
v -0.100000 -0.212132 -0.212132
v -0.100000 -0.150000 -0.259808
v -0.200000 -0.180312 -0.180312
v -0.200000 -0.127500 -0.220836
v 0.100000 -0.212132 -0.212132
v -0.100000 -0.289778 0.077646
v 0.100000 -0.289778 0.077646
v 0.100000 -0.259808 0.150000
v -0.200000 -0.000000 0.255000
v -0.100000 0.077646 -0.289778
v 0.100000 0.077646 -0.289778
v -0.200000 0.065999 -0.246311
v -0.200000 0.127500 -0.220836
v 0.100000 -0.212132 0.212132
v -0.200000 0.180312 -0.180312
v -0.200000 0.220836 -0.127500
v -0.200000 0.246311 -0.065999
v -0.200000 -0.246311 0.065999
v 0.100000 -0.150000 -0.259808
v 0.100000 -0.300000 -0.000000
v 0.200000 -0.000000 0.255000
v 0.200000 0.065999 0.246311
v 0.200000 -0.065999 0.246311
v 0.200000 -0.127500 0.220836
v 0.200000 0.127500 0.220836
v 0.200000 -0.180312 0.180312
v 0.200000 0.180312 0.180312
v 0.200000 -0.220836 0.127500
v 0.200000 0.220836 0.127500
v 0.200000 -0.246311 0.065999
v 0.200000 0.246311 0.065999
v 0.200000 -0.255000 -0.000000
v 0.200000 0.255000 0.000000
v 0.200000 -0.246311 -0.065999
v 0.200000 0.246311 -0.065999
v 0.200000 -0.220836 -0.127500
v 0.200000 0.220836 -0.127500
v 0.200000 -0.180312 -0.180312
v 0.200000 0.180312 -0.180312
v 0.200000 -0.127500 -0.220836
v 0.200000 0.127500 -0.220836
v 0.200000 -0.065999 -0.246311
v 0.200000 0.065999 -0.246311
v 0.200000 0.000000 -0.255000
v -0.200000 0.077446 -0.077446
v -0.200000 0.094852 -0.054763
v -0.100000 0.058085 -0.058085
v -0.100000 0.071139 -0.041072
v -0.100000 0.000000 -0.082144
v -0.200000 0.000000 -0.109525
v -0.100000 0.021260 -0.079345
v -0.200000 0.028347 -0.105793
v -0.200000 -0.105793 0.028347
v -0.100000 -0.079345 0.021260
v -0.200000 -0.094852 0.054763
v -0.100000 -0.071139 0.041072
v -0.100000 -0.000000 0.082144
v -0.100000 -0.021260 0.079345
v -0.100000 0.021260 0.079345
v -0.100000 0.041072 0.071139
v -0.100000 -0.041072 0.071139
v -0.100000 0.058085 0.058085
v -0.100000 -0.058085 0.058085
v -0.100000 0.071139 0.041072
v -0.100000 0.079345 0.021260
v -0.100000 0.082144 0.000000
v -0.100000 -0.082144 0.000000
v -0.100000 0.079345 -0.021260
v -0.100000 -0.079345 -0.021260
v -0.100000 -0.071139 -0.041072
v -0.100000 -0.058085 -0.058085
v -0.100000 0.041072 -0.071139
v -0.100000 -0.041072 -0.071139
v -0.100000 -0.021260 -0.079345
v -0.200000 -0.054763 -0.094852
v -0.200000 -0.028347 -0.105793
v -0.200000 0.054763 0.094852
v -0.200000 0.077446 0.077446
v -0.200000 -0.077446 0.077446
v -0.200000 -0.077446 -0.077446
v -0.200000 -0.094852 -0.054763
v -0.200000 -0.054763 0.094852
v -0.200000 -0.028347 0.105793
v -0.200000 -0.000000 0.109525
v -0.200000 0.105793 -0.028347
v -0.200000 0.109525 0.000000
v -0.200000 0.028347 0.105793
v -0.200000 0.054763 -0.094852
v -0.200000 -0.105793 -0.028347
v -0.200000 -0.109525 0.000000
v -0.200000 0.105793 0.028347
v -0.200000 0.094852 0.054763
v -0.200000 -0.000000 0.164880
v -0.200000 -0.042674 0.159262
v -0.200000 0.042674 0.159262
v -0.200000 0.082440 0.142790
v -0.200000 -0.082440 0.142790
v -0.200000 -0.116588 0.116588
v -0.200000 0.116588 0.116588
v -0.200000 -0.000000 0.109525
v -0.200000 0.028347 0.105793
v -0.200000 -0.028347 0.105793
v -0.200000 0.142790 0.082440
v -0.200000 0.054763 0.094852
v -0.200000 -0.142790 0.082440
v -0.200000 -0.054763 0.094852
v -0.200000 0.159262 0.042674
v -0.200000 0.094852 0.054763
v -0.200000 0.105793 0.028347
v -0.200000 0.164880 0.000000
v -0.200000 0.109525 0.000000
v -0.200000 -0.159262 0.042674
v -0.200000 0.159262 -0.042674
v -0.200000 0.105793 -0.028347
v -0.200000 0.094852 -0.054763
v -0.200000 -0.164880 0.000000
v -0.200000 -0.109525 0.000000
v -0.200000 -0.159262 -0.042674
v -0.200000 0.142790 -0.082440
v -0.200000 0.054763 -0.094852
v -0.200000 -0.142790 -0.082440
v -0.200000 -0.054763 -0.094852
v -0.200000 0.116588 -0.116588
v -0.200000 -0.116588 -0.116588
v -0.200000 0.028347 -0.105793
v -0.200000 -0.028347 -0.105793
v -0.200000 0.000000 -0.109525
v -0.200000 0.082440 -0.142790
v -0.200000 -0.082440 -0.142790
v -0.200000 0.042674 -0.159262
v -0.200000 -0.042674 -0.159262
v -0.200000 0.000000 -0.164880
v -0.200000 -0.000000 0.164880
v -0.200000 0.042674 0.159262
v -0.200000 0.082440 0.142790
v -0.200000 0.116588 0.116588
v -0.200000 -0.116588 0.116588
v -0.200000 0.142790 0.082440
v -0.200000 0.159262 0.042674
v -0.200000 0.164880 0.000000
v -0.200000 -0.142790 0.082440
v -0.200000 0.159262 -0.042674
v -0.200000 0.142790 -0.082440
v -0.200000 -0.164880 0.000000
v -0.200000 -0.142790 -0.082440
v -0.200000 0.116588 -0.116588
v -0.200000 0.082440 -0.142790
v -0.200000 -0.116588 -0.116588
v -0.200000 0.042674 -0.159262
v -0.200000 0.000000 -0.164880
vn -0.0000 0.9659 -0.2588
vn -0.0000 1.0000 -0.0000
vn -0.4104 -0.4560 0.7897
vn -0.4104 -0.2360 0.8808
vn -0.0000 0.2588 0.9659
vn -0.0000 0.5000 0.8660
vn -0.4104 -0.2360 -0.8808
vn -0.4104 -0.0000 -0.9119
vn -0.0000 -0.2588 -0.9659
vn -0.0000 -0.0000 -1.0000
vn -0.0000 0.9659 0.2588
vn -0.0000 0.8660 0.5000
vn -0.0000 -0.5000 0.8660
vn -0.0000 -0.2588 0.9659
vn -0.4104 0.2360 0.8808
vn -0.4104 0.4560 0.7897
vn -0.0000 0.8660 -0.5000
vn -0.0000 0.7071 0.7071
vn -0.4104 -0.8808 -0.2360
vn -0.4104 -0.9119 -0.0000
vn -0.4104 0.9119 -0.0000
vn -0.4104 0.8808 0.2360
vn -0.0000 -0.8660 -0.5000
vn -0.0000 -0.9659 -0.2588
vn -0.0000 -0.0000 1.0000
vn -0.4104 -0.7897 -0.4560
vn -0.4104 -0.7897 0.4560
vn -0.4104 -0.6448 0.6448
vn -0.0000 0.5000 -0.8660
vn -0.0000 0.7071 -0.7071
vn -0.4104 0.7897 0.4560
vn -0.4104 0.6448 0.6448
vn -0.4104 -0.6448 -0.6448
vn -0.4104 -0.4560 -0.7897
vn -0.0000 -0.7071 -0.7071
vn -0.0000 -0.9659 0.2588
vn -0.0000 -0.8660 0.5000
vn -0.4104 -0.0000 0.9119
vn -0.0000 0.2588 -0.9659
vn -0.4104 0.2360 -0.8808
vn -0.4104 0.4560 -0.7897
vn -0.0000 -0.7071 0.7071
vn -0.4104 0.6448 -0.6448
vn -0.4104 0.7897 -0.4560
vn -0.4104 0.8808 -0.2360
vn -0.4104 -0.8808 0.2360
vn -0.0000 -0.5000 -0.8660
vn -0.0000 -1.0000 -0.0000
vn 1.0000 -0.0000 -0.0000
vn 0.4104 -0.0000 -0.9119
vn 0.4104 0.2360 -0.8808
vn 0.4104 0.4560 -0.7897
vn 0.4104 0.7897 -0.4560
vn 0.4104 0.8808 -0.2360
vn 0.4104 0.6448 -0.6448
vn 0.4104 0.9119 -0.0000
vn 0.4104 0.8808 0.2360
vn 0.4104 0.7897 0.4560
vn 0.4104 0.6448 0.6448
vn 0.4104 -0.2360 0.8808
vn 0.4104 -0.0000 0.9119
vn 0.4104 -0.7897 0.4560
vn 0.4104 -0.6448 0.6448
vn 0.4104 0.2360 0.8808
vn 0.4104 0.4560 0.7897
vn 0.4104 -0.4560 0.7897
vn 0.4104 -0.8808 0.2360
vn 0.4104 -0.9119 -0.0000
vn 0.4104 -0.8808 -0.2360
vn 0.4104 -0.7897 -0.4560
vn 0.4104 -0.6448 -0.6448
vn 0.4104 -0.4560 -0.7897
vn 0.4104 -0.2360 -0.8808
vn -0.2641 -0.6820 0.6820
vn -0.2641 -0.8353 0.4822
vn -0.2641 -0.0000 0.9645
vn -0.2641 -0.2496 0.9316
vn -0.2641 0.9316 -0.2497
vn -0.2641 0.8353 -0.4823
vn -0.2641 0.9316 -0.2496
vn -0.2641 0.8353 -0.4822
vn -1.0000 -0.0000 -0.0000
vn -0.2641 0.4822 0.8353
vn -0.2641 0.2496 0.9316
vn -0.2641 -0.4822 -0.8353
vn -0.2641 -0.6820 -0.6820
vn -0.2641 0.6820 -0.6820
vn -0.2641 0.6820 0.6820
vn -0.2641 0.8353 0.4822
vn -0.2641 0.8353 0.4823
vn -0.2641 0.4822 -0.8353
vn -0.2641 0.2496 -0.9316
vn -0.2641 -0.0000 -0.9645
vn -0.2641 -0.9316 0.2496
vn -0.2641 -0.9645 -0.0000
vn -0.2641 -0.2496 -0.9316
vn -0.2641 -0.4822 0.8353
vn -0.2641 0.9316 0.2496
vn -0.2641 0.9645 -0.0000
vn -0.2641 -0.9316 -0.2496
vn -0.2641 -0.8353 -0.4823
vn -0.2641 -0.8353 -0.4822
vt 0.593750 0.218185
vt 0.593750 0.225000
vt 0.593750 0.025000
vt 0.593750 0.076764
vt 0.593750 0.125000
vt 0.593750 0.198205
vt 0.593750 0.068999
vt 0.593750 0.110000
vt 0.593750 0.166421
vt 0.593750 0.195000
vt 0.593750 0.189207
vt 0.593750 0.172224
vt 0.593750 0.145208
vt 0.718750 0.076631
vt 0.718750 0.063723
vt 0.718750 0.088235
vt 0.718750 0.072426
vt 0.718750 0.025000
vt 0.718750 0.039174
vt 0.718750 0.043898
vt 0.718750 0.052381
vt 0.718750 0.077897
vt 0.718750 0.079763
vt 0.718750 0.061508
vt 0.718750 0.095529
vt 0.718750 0.098017
vt 0.718750 0.125000
vt 0.718750 0.150882
vt 0.718750 0.099118
vt 0.718750 0.175000
vt 0.718750 0.075000
vt 0.718750 0.054289
vt 0.718750 0.195711
vt 0.718750 0.142193
vt 0.718750 0.107807
vt 0.718750 0.211603
vt 0.718750 0.158214
vt 0.718750 0.171971
vt 0.718750 0.038397
vt 0.718750 0.091786
vt 0.718750 0.078029
vt 0.718750 0.221593
vt 0.718750 0.182528
vt 0.718750 0.189164
vt 0.718750 0.225000
vt 0.718750 0.191427
vt 0.718750 0.028407
vt 0.718750 0.067472
vt 0.718750 0.060836
vt 0.718750 0.058573
vt 0.843750 0.275000
vt 0.843750 0.318999
vt 0.843750 0.360000
vt 0.843750 0.395208
vt 0.843750 0.303449
vt 0.843750 0.422224
vt 0.843750 0.329960
vt 0.843750 0.352725
vt 0.843750 0.439207
vt 0.843750 0.370194
vt 0.843750 0.381175
vt 0.843750 0.445000
vt 0.843750 0.384920
s 1
usemtl colormap
f 1/1/1 3/2/2 2/1/1
f 4/2/2 2/1/1 3/2/2
f 5/3/3 7/3/4 6/3/3
f 8/3/4 6/3/3 7/3/4
f 9/4/5 11/5/6 10/4/5
f 12/5/6 10/4/5 11/5/6
f 13/3/7 15/3/7 14/3/8
f 16/3/8 14/3/8 15/3/7
f 13/3/9 14/3/10 17/3/9
f 18/3/10 17/3/9 14/3/10
f 19/1/11 21/6/12 20/1/11
f 22/6/12 20/1/11 21/6/12
f 23/3/13 24/3/14 5/3/13
f 7/3/14 5/3/13 24/3/14
f 25/7/15 10/4/15 26/8/16
f 12/5/16 26/8/16 10/4/15
f 27/6/17 1/1/1 28/6/17
f 2/1/1 28/6/17 1/1/1
f 11/5/6 29/9/18 12/5/6
f 30/9/18 12/5/6 29/9/18
f 31/3/19 33/3/19 32/3/20
f 34/3/20 32/3/20 33/3/19
f 35/10/21 36/11/22 3/2/21
f 19/1/22 3/2/21 36/11/22
f 37/3/23 38/3/23 33/3/24
f 39/3/24 33/3/24 38/3/23
f 40/3/25 9/4/5 41/3/25
f 10/4/5 41/3/25 9/4/5
f 42/3/26 37/3/26 31/3/19
f 33/3/19 31/3/19 37/3/26
f 43/3/27 45/3/27 44/3/28
f 46/3/28 44/3/28 45/3/27
f 47/5/29 49/9/30 48/5/29
f 50/9/30 48/5/29 49/9/30
f 51/12/31 52/13/32 21/6/31
f 30/9/32 21/6/31 52/13/32
f 53/3/33 55/3/33 54/3/34
f 56/3/34 54/3/34 55/3/33
f 53/3/35 57/3/35 37/3/23
f 38/3/23 37/3/23 57/3/35
f 58/3/36 59/3/36 45/3/37
f 60/3/37 45/3/37 59/3/36
f 7/3/4 41/3/38 8/3/4
f 61/3/38 8/3/4 41/3/38
f 36/11/22 51/12/31 19/1/22
f 21/6/31 19/1/22 51/12/31
f 14/3/10 62/4/39 18/3/10
f 63/4/39 18/3/10 62/4/39
f 64/7/40 65/8/41 62/4/40
f 47/5/41 62/4/40 65/8/41
f 66/3/42 23/3/13 46/3/42
f 5/3/13 46/3/42 23/3/13
f 41/3/38 10/4/15 61/3/38
f 25/7/15 61/3/38 10/4/15
f 67/13/43 68/12/44 49/9/43
f 27/6/44 49/9/43 68/12/44
f 16/3/8 64/7/40 14/3/8
f 62/4/40 14/3/8 64/7/40
f 26/8/16 12/5/16 52/13/32
f 30/9/32 52/13/32 12/5/16
f 54/3/34 56/3/34 13/3/7
f 15/3/7 13/3/7 56/3/34
f 24/3/14 40/3/25 7/3/14
f 41/3/25 7/3/14 40/3/25
f 45/3/37 60/3/37 46/3/42
f 66/3/42 46/3/42 60/3/37
f 62/4/39 47/5/29 63/4/39
f 48/5/29 63/4/39 47/5/29
f 46/3/28 5/3/3 44/3/28
f 6/3/3 44/3/28 5/3/3
f 69/11/45 35/10/21 1/1/45
f 3/2/21 1/1/45 35/10/21
f 32/3/20 34/3/20 70/3/46
f 58/3/46 70/3/46 34/3/20
f 53/3/35 54/3/47 57/3/35
f 71/3/47 57/3/35 54/3/47
f 21/6/12 30/9/18 22/6/12
f 29/9/18 22/6/12 30/9/18
f 65/8/41 67/13/43 47/5/41
f 49/9/43 47/5/41 67/13/43
f 33/3/24 39/3/24 34/3/48
f 72/3/48 34/3/48 39/3/24
f 3/2/2 19/1/11 4/2/2
f 20/1/11 4/2/2 19/1/11
f 68/12/44 69/11/45 27/6/44
f 1/1/45 27/6/44 69/11/45
f 70/3/46 58/3/46 43/3/27
f 45/3/27 43/3/27 58/3/46
f 54/3/47 13/3/9 71/3/47
f 17/3/9 71/3/47 13/3/9
f 34/3/48 72/3/48 58/3/36
f 59/3/36 58/3/36 72/3/48
f 55/3/33 53/3/33 42/3/26
f 37/3/26 42/3/26 53/3/33
f 49/9/30 27/6/17 50/9/30
f 28/6/17 50/9/30 27/6/17
f 73/3/49 75/3/49 74/7/49
f 76/3/49 74/7/49 75/3/49
f 77/8/49 74/7/49 76/3/49
f 78/3/49 77/8/49 76/3/49
f 79/13/49 77/8/49 78/3/49
f 80/3/49 79/13/49 78/3/49
f 81/12/49 79/13/49 80/3/49
f 82/3/49 81/12/49 80/3/49
f 83/11/49 81/12/49 82/3/49
f 84/3/49 83/11/49 82/3/49
f 85/10/49 83/11/49 84/3/49
f 86/3/49 85/10/49 84/3/49
f 87/11/49 85/10/49 86/3/49
f 88/3/49 87/11/49 86/3/49
f 89/12/49 87/11/49 88/3/49
f 90/3/49 89/12/49 88/3/49
f 91/13/49 89/12/49 90/3/49
f 92/3/49 91/13/49 90/3/49
f 93/8/49 91/13/49 92/3/49
f 94/3/49 93/8/49 92/3/49
f 95/7/49 93/8/49 94/3/49
f 96/3/49 95/7/49 94/3/49
f 18/3/50 63/4/51 96/3/50
f 95/7/51 96/3/50 63/4/51
f 95/7/51 63/4/51 93/8/52
f 48/5/52 93/8/52 63/4/51
f 28/6/53 2/1/54 89/12/53
f 87/11/54 89/12/53 2/1/54
f 93/8/52 48/5/52 91/13/55
f 50/9/55 91/13/55 48/5/52
f 2/1/54 4/2/56 87/11/54
f 85/10/56 87/11/54 4/2/56
f 4/2/56 20/1/57 85/10/56
f 83/11/57 85/10/56 20/1/57
f 50/9/55 28/6/53 91/13/55
f 89/12/53 91/13/55 28/6/53
f 20/1/57 22/6/58 83/11/57
f 81/12/58 83/11/57 22/6/58
f 22/6/58 29/9/59 81/12/58
f 79/13/59 81/12/58 29/9/59
f 24/3/60 75/3/60 40/3/61
f 73/3/61 40/3/61 75/3/60
f 60/3/62 80/3/62 66/3/63
f 78/3/63 66/3/63 80/3/62
f 74/7/64 77/8/65 9/4/64
f 11/5/65 9/4/64 77/8/65
f 73/3/61 74/7/64 40/3/61
f 9/4/64 40/3/61 74/7/64
f 23/3/66 76/3/66 24/3/60
f 75/3/60 24/3/60 76/3/66
f 59/3/67 82/3/67 60/3/62
f 80/3/62 60/3/62 82/3/67
f 72/3/68 84/3/68 59/3/67
f 82/3/67 59/3/67 84/3/68
f 39/3/69 86/3/69 72/3/68
f 84/3/68 72/3/68 86/3/69
f 66/3/63 78/3/63 23/3/66
f 76/3/66 23/3/66 78/3/63
f 38/3/70 88/3/70 39/3/69
f 86/3/69 39/3/69 88/3/70
f 57/3/71 90/3/71 38/3/70
f 88/3/70 38/3/70 90/3/71
f 57/3/71 71/3/72 90/3/71
f 92/3/72 90/3/71 71/3/72
f 77/8/65 79/13/59 11/5/65
f 29/9/59 11/5/65 79/13/59
f 17/3/73 18/3/50 94/3/73
f 96/3/50 94/3/73 18/3/50
f 71/3/72 17/3/73 92/3/72
f 94/3/73 92/3/72 17/3/73
f 97/14/74 99/15/74 98/16/75
f 100/17/75 98/16/75 99/15/74
f 101/18/76 103/19/77 102/18/76
f 104/20/77 102/18/76 103/19/77
f 105/18/78 107/18/79 106/18/80
f 108/18/81 106/18/80 107/18/79
f 109/18/82 111/19/82 110/18/82
f 112/21/82 110/18/82 111/19/82
f 113/18/82 110/18/82 112/21/82
f 114/15/82 113/18/82 112/21/82
f 115/18/82 113/18/82 114/15/82
f 116/17/82 115/18/82 114/15/82
f 108/18/82 115/18/82 116/17/82
f 117/22/82 108/18/82 116/17/82
f 106/18/82 108/18/82 117/22/82
f 118/23/82 106/18/82 117/22/82
f 119/18/82 106/18/82 118/23/82
f 120/22/82 119/18/82 118/23/82
f 121/18/82 119/18/82 120/22/82
f 100/17/82 121/18/82 120/22/82
f 122/18/82 121/18/82 100/17/82
f 99/15/82 122/18/82 100/17/82
f 123/18/82 122/18/82 99/15/82
f 124/21/82 123/18/82 99/15/82
f 125/18/82 123/18/82 124/21/82
f 103/19/82 125/18/82 124/21/82
f 126/18/82 125/18/82 103/19/82
f 101/18/82 126/18/82 103/19/82
f 127/18/83 125/18/83 128/18/84
f 126/18/84 128/18/84 125/18/83
f 112/21/85 129/24/85 114/15/86
f 130/14/86 114/15/86 129/24/85
f 107/18/79 131/18/87 108/18/81
f 115/18/87 108/18/81 131/18/87
f 132/18/88 123/18/88 127/18/83
f 125/18/83 127/18/83 123/18/88
f 132/18/88 133/18/89 123/18/88
f 122/18/90 123/18/88 133/18/89
f 134/18/91 135/18/92 113/18/91
f 110/18/92 113/18/91 135/18/92
f 135/18/92 136/18/93 110/18/92
f 109/18/93 110/18/92 136/18/93
f 137/25/94 120/22/94 138/26/95
f 118/23/95 138/26/95 120/22/94
f 111/19/96 139/20/96 112/21/85
f 129/24/85 112/21/85 139/20/96
f 109/18/93 136/18/93 111/19/96
f 139/20/96 111/19/96 136/18/93
f 131/18/87 134/18/91 115/18/87
f 113/18/91 115/18/87 134/18/91
f 98/16/75 100/17/75 137/25/94
f 120/22/94 137/25/94 100/17/75
f 103/19/77 124/21/97 104/20/77
f 140/24/97 104/20/77 124/21/97
f 141/18/98 142/18/99 121/18/98
f 119/18/99 121/18/98 142/18/99
f 133/18/89 141/18/98 122/18/90
f 121/18/98 122/18/90 141/18/98
f 142/18/99 105/18/80 119/18/99
f 106/18/80 119/18/99 105/18/78
f 138/26/95 118/23/95 143/25/100
f 117/22/100 143/25/100 118/23/95
f 124/21/97 99/15/74 140/24/97
f 97/14/74 140/24/97 99/15/74
f 143/25/100 117/22/100 144/16/101
f 116/17/102 144/16/101 117/22/100
f 128/18/84 126/18/84 102/18/76
f 101/18/76 102/18/76 126/18/84
f 144/16/101 116/17/102 130/14/86
f 114/15/86 130/14/86 116/17/102
f 145/27/82 147/28/82 146/29/82
f 148/30/82 146/29/82 147/28/82
f 149/31/82 146/29/82 148/30/82
f 150/32/82 149/31/82 148/30/82
f 151/33/82 150/32/82 148/30/82
f 152/27/82 150/32/82 151/33/82
f 152/27/82 151/33/82 153/34/82
f 154/35/82 150/32/82 152/27/82
f 155/36/82 153/34/82 151/33/82
f 156/37/82 153/34/82 155/36/82
f 130/38/82 156/37/82 155/36/82
f 157/39/82 150/32/82 154/35/82
f 158/40/82 157/39/82 154/35/82
f 131/41/82 157/39/82 158/40/82
f 159/42/82 130/38/82 155/36/82
f 160/43/82 130/38/82 159/42/82
f 161/44/82 160/43/82 159/42/82
f 162/45/82 161/44/82 159/42/82
f 163/46/82 161/44/82 162/45/82
f 164/47/82 157/39/82 131/41/82
f 107/48/82 164/47/82 131/41/82
f 105/49/82 164/47/82 107/48/82
f 165/42/82 163/46/82 162/45/82
f 166/44/82 163/46/82 165/42/82
f 167/43/82 166/44/82 165/42/82
f 168/18/82 164/47/82 105/49/82
f 169/50/82 168/18/82 105/49/82
f 141/49/82 168/18/82 169/50/82
f 170/47/82 168/18/82 141/49/82
f 133/48/82 170/47/82 141/49/82
f 171/36/82 167/43/82 165/42/82
f 97/38/82 167/43/82 171/36/82
f 172/37/82 97/38/82 171/36/82
f 173/39/82 170/47/82 133/48/82
f 132/41/82 173/39/82 133/48/82
f 174/40/82 173/39/82 132/41/82
f 175/33/82 172/37/82 171/36/82
f 176/32/82 173/39/82 174/40/82
f 177/34/82 172/37/82 175/33/82
f 178/35/82 176/32/82 174/40/82
f 179/27/82 177/34/82 175/33/82
f 179/27/82 176/32/82 178/35/82
f 175/33/82 176/32/82 179/27/82
f 180/30/82 176/32/82 175/33/82
f 181/31/82 176/32/82 180/30/82
f 182/28/82 181/31/82 180/30/82
f 183/29/82 181/31/82 182/28/82
f 184/27/82 183/29/82 182/28/82
f 61/51/82 25/52/82 8/51/82
f 26/53/82 8/51/82 25/52/82
f 6/51/82 8/51/82 26/53/82
f 52/54/82 6/51/82 26/53/82
f 44/51/82 6/51/82 52/54/82
f 185/51/82 44/51/82 52/54/82
f 186/55/82 185/51/82 52/54/82
f 185/51/82 146/51/82 44/51/82
f 51/56/82 186/55/82 52/54/82
f 187/57/82 186/55/82 51/56/82
f 188/58/82 187/57/82 51/56/82
f 43/51/82 44/51/82 146/51/82
f 149/51/82 43/51/82 146/51/82
f 189/51/82 43/51/82 149/51/82
f 36/59/82 188/58/82 51/56/82
f 190/60/82 188/58/82 36/59/82
f 191/61/82 190/60/82 36/59/82
f 35/62/82 191/61/82 36/59/82
f 192/63/82 191/61/82 35/62/82
f 70/51/82 43/51/82 189/51/82
f 193/51/82 70/51/82 189/51/82
f 164/51/82 70/51/82 193/51/82
f 69/59/82 192/63/82 35/62/82
f 194/61/82 192/63/82 69/59/82
f 195/60/82 194/61/82 69/59/82
f 32/51/82 70/51/82 164/51/82
f 196/51/82 32/51/82 164/51/82
f 170/51/82 32/51/82 196/51/82
f 31/51/82 32/51/82 170/51/82
f 197/51/82 31/51/82 170/51/82
f 68/56/82 195/60/82 69/59/82
f 198/58/82 195/60/82 68/56/82
f 199/57/82 198/58/82 68/56/82
f 42/51/82 31/51/82 197/51/82
f 200/51/82 42/51/82 197/51/82
f 181/51/82 42/51/82 200/51/82
f 67/54/82 199/57/82 68/56/82
f 55/51/82 42/51/82 181/51/82
f 201/55/82 199/57/82 67/54/82
f 183/51/82 55/51/82 181/51/82
f 202/51/82 201/55/82 67/54/82
f 202/51/82 55/51/82 183/51/82
f 67/54/82 55/51/82 202/51/82
f 65/53/82 55/51/82 67/54/82
f 56/51/82 55/51/82 65/53/82
f 64/52/82 56/51/82 65/53/82
f 15/51/82 56/51/82 64/52/82
f 16/51/82 15/51/82 64/52/82
